<svg xmlns="http://www.w3.org/2000/svg" width="256" height="194" viewBox="0 0 256 194" shape-rendering="crispEdges">
  <defs>
    <style>
      .frame { fill: #252b36; stroke: #8d98a8; stroke-width: 1; }
      .panel { fill: #2f3745; stroke: #7f8a9a; stroke-width: 1; }
      .slot { fill: #1f2430; stroke: #98a4b5; stroke-width: 1; }
      .slotInner { fill: #353e4d; }
      .bar { fill: #303949; stroke: #93a0b2; stroke-width: 1; }
      .btn { fill: #364153; stroke: #a1afc1; stroke-width: 1; }
    </style>
  </defs>

  <rect class="frame" x="0" y="0" width="256" height="194" />

  <rect class="panel" x="4" y="14" width="28" height="164" />
  <rect class="panel" x="36" y="14" width="168" height="74" />
  <rect class="panel" x="4" y="108" width="198" height="82" />
  <rect class="panel" x="206" y="14" width="46" height="176" />
  <rect class="bar" x="40" y="4" width="160" height="12" />

  <rect class="btn" x="210" y="18" width="40" height="20" />
  <rect class="btn" x="210" y="41" width="40" height="20" />
  <rect class="btn" x="210" y="64" width="40" height="20" />
  <rect class="btn" x="210" y="87" width="40" height="20" />

  <rect class="slot" x="8" y="18" width="18" height="18" /><rect class="slotInner" x="9" y="19" width="16" height="16" />
  <rect class="slot" x="8" y="38" width="18" height="18" /><rect class="slotInner" x="9" y="39" width="16" height="16" />
  <rect class="slot" x="8" y="58" width="18" height="18" /><rect class="slotInner" x="9" y="59" width="16" height="16" />
  <rect class="slot" x="8" y="78" width="18" height="18" /><rect class="slotInner" x="9" y="79" width="16" height="16" />
  <rect class="slot" x="8" y="98" width="18" height="18" /><rect class="slotInner" x="9" y="99" width="16" height="16" />
  <rect class="slot" x="8" y="118" width="18" height="18" /><rect class="slotInner" x="9" y="119" width="16" height="16" />
  <rect class="slot" x="8" y="138" width="18" height="18" /><rect class="slotInner" x="9" y="139" width="16" height="16" />
  <rect class="slot" x="8" y="158" width="18" height="18" /><rect class="slotInner" x="9" y="159" width="16" height="16" />

  <rect class="slot" x="40" y="18" width="18" height="18" /><rect class="slotInner" x="41" y="19" width="16" height="16" />
  <rect class="slot" x="58" y="18" width="18" height="18" /><rect class="slotInner" x="59" y="19" width="16" height="16" />
  <rect class="slot" x="76" y="18" width="18" height="18" /><rect class="slotInner" x="77" y="19" width="16" height="16" />
  <rect class="slot" x="94" y="18" width="18" height="18" /><rect class="slotInner" x="95" y="19" width="16" height="16" />
  <rect class="slot" x="112" y="18" width="18" height="18" /><rect class="slotInner" x="113" y="19" width="16" height="16" />
  <rect class="slot" x="130" y="18" width="18" height="18" /><rect class="slotInner" x="131" y="19" width="16" height="16" />
  <rect class="slot" x="148" y="18" width="18" height="18" /><rect class="slotInner" x="149" y="19" width="16" height="16" />
  <rect class="slot" x="166" y="18" width="18" height="18" /><rect class="slotInner" x="167" y="19" width="16" height="16" />
  <rect class="slot" x="184" y="18" width="18" height="18" /><rect class="slotInner" x="185" y="19" width="16" height="16" />

  <rect class="slot" x="40" y="36" width="18" height="18" /><rect class="slotInner" x="41" y="37" width="16" height="16" />
  <rect class="slot" x="58" y="36" width="18" height="18" /><rect class="slotInner" x="59" y="37" width="16" height="16" />
  <rect class="slot" x="76" y="36" width="18" height="18" /><rect class="slotInner" x="77" y="37" width="16" height="16" />
  <rect class="slot" x="94" y="36" width="18" height="18" /><rect class="slotInner" x="95" y="37" width="16" height="16" />
  <rect class="slot" x="112" y="36" width="18" height="18" /><rect class="slotInner" x="113" y="37" width="16" height="16" />
  <rect class="slot" x="130" y="36" width="18" height="18" /><rect class="slotInner" x="131" y="37" width="16" height="16" />
  <rect class="slot" x="148" y="36" width="18" height="18" /><rect class="slotInner" x="149" y="37" width="16" height="16" />
  <rect class="slot" x="166" y="36" width="18" height="18" /><rect class="slotInner" x="167" y="37" width="16" height="16" />
  <rect class="slot" x="184" y="36" width="18" height="18" /><rect class="slotInner" x="185" y="37" width="16" height="16" />

  <rect class="slot" x="40" y="54" width="18" height="18" /><rect class="slotInner" x="41" y="55" width="16" height="16" />
  <rect class="slot" x="58" y="54" width="18" height="18" /><rect class="slotInner" x="59" y="55" width="16" height="16" />
  <rect class="slot" x="76" y="54" width="18" height="18" /><rect class="slotInner" x="77" y="55" width="16" height="16" />
  <rect class="slot" x="94" y="54" width="18" height="18" /><rect class="slotInner" x="95" y="55" width="16" height="16" />
  <rect class="slot" x="112" y="54" width="18" height="18" /><rect class="slotInner" x="113" y="55" width="16" height="16" />
  <rect class="slot" x="130" y="54" width="18" height="18" /><rect class="slotInner" x="131" y="55" width="16" height="16" />
  <rect class="slot" x="148" y="54" width="18" height="18" /><rect class="slotInner" x="149" y="55" width="16" height="16" />
  <rect class="slot" x="166" y="54" width="18" height="18" /><rect class="slotInner" x="167" y="55" width="16" height="16" />
  <rect class="slot" x="184" y="54" width="18" height="18" /><rect class="slotInner" x="185" y="55" width="16" height="16" />

  <rect class="slot" x="8" y="112" width="18" height="18" /><rect class="slotInner" x="9" y="113" width="16" height="16" />
  <rect class="slot" x="26" y="112" width="18" height="18" /><rect class="slotInner" x="27" y="113" width="16" height="16" />
  <rect class="slot" x="44" y="112" width="18" height="18" /><rect class="slotInner" x="45" y="113" width="16" height="16" />
  <rect class="slot" x="62" y="112" width="18" height="18" /><rect class="slotInner" x="63" y="113" width="16" height="16" />
  <rect class="slot" x="80" y="112" width="18" height="18" /><rect class="slotInner" x="81" y="113" width="16" height="16" />
  <rect class="slot" x="98" y="112" width="18" height="18" /><rect class="slotInner" x="99" y="113" width="16" height="16" />
  <rect class="slot" x="116" y="112" width="18" height="18" /><rect class="slotInner" x="117" y="113" width="16" height="16" />
  <rect class="slot" x="134" y="112" width="18" height="18" /><rect class="slotInner" x="135" y="113" width="16" height="16" />
  <rect class="slot" x="152" y="112" width="18" height="18" /><rect class="slotInner" x="153" y="113" width="16" height="16" />

  <rect class="slot" x="8" y="130" width="18" height="18" /><rect class="slotInner" x="9" y="131" width="16" height="16" />
  <rect class="slot" x="26" y="130" width="18" height="18" /><rect class="slotInner" x="27" y="131" width="16" height="16" />
  <rect class="slot" x="44" y="130" width="18" height="18" /><rect class="slotInner" x="45" y="131" width="16" height="16" />
  <rect class="slot" x="62" y="130" width="18" height="18" /><rect class="slotInner" x="63" y="131" width="16" height="16" />
  <rect class="slot" x="80" y="130" width="18" height="18" /><rect class="slotInner" x="81" y="131" width="16" height="16" />
  <rect class="slot" x="98" y="130" width="18" height="18" /><rect class="slotInner" x="99" y="131" width="16" height="16" />
  <rect class="slot" x="116" y="130" width="18" height="18" /><rect class="slotInner" x="117" y="131" width="16" height="16" />
  <rect class="slot" x="134" y="130" width="18" height="18" /><rect class="slotInner" x="135" y="131" width="16" height="16" />
  <rect class="slot" x="152" y="130" width="18" height="18" /><rect class="slotInner" x="153" y="131" width="16" height="16" />

  <rect class="slot" x="8" y="148" width="18" height="18" /><rect class="slotInner" x="9" y="149" width="16" height="16" />
  <rect class="slot" x="26" y="148" width="18" height="18" /><rect class="slotInner" x="27" y="149" width="16" height="16" />
  <rect class="slot" x="44" y="148" width="18" height="18" /><rect class="slotInner" x="45" y="149" width="16" height="16" />
  <rect class="slot" x="62" y="148" width="18" height="18" /><rect class="slotInner" x="63" y="149" width="16" height="16" />
  <rect class="slot" x="80" y="148" width="18" height="18" /><rect class="slotInner" x="81" y="149" width="16" height="16" />
  <rect class="slot" x="98" y="148" width="18" height="18" /><rect class="slotInner" x="99" y="149" width="16" height="16" />
  <rect class="slot" x="116" y="148" width="18" height="18" /><rect class="slotInner" x="117" y="149" width="16" height="16" />
  <rect class="slot" x="134" y="148" width="18" height="18" /><rect class="slotInner" x="135" y="149" width="16" height="16" />
  <rect class="slot" x="152" y="148" width="18" height="18" /><rect class="slotInner" x="153" y="149" width="16" height="16" />

  <rect class="slot" x="8" y="170" width="18" height="18" /><rect class="slotInner" x="9" y="171" width="16" height="16" />
  <rect class="slot" x="26" y="170" width="18" height="18" /><rect class="slotInner" x="27" y="171" width="16" height="16" />
  <rect class="slot" x="44" y="170" width="18" height="18" /><rect class="slotInner" x="45" y="171" width="16" height="16" />
  <rect class="slot" x="62" y="170" width="18" height="18" /><rect class="slotInner" x="63" y="171" width="16" height="16" />
  <rect class="slot" x="80" y="170" width="18" height="18" /><rect class="slotInner" x="81" y="171" width="16" height="16" />
  <rect class="slot" x="98" y="170" width="18" height="18" /><rect class="slotInner" x="99" y="171" width="16" height="16" />
  <rect class="slot" x="116" y="170" width="18" height="18" /><rect class="slotInner" x="117" y="171" width="16" height="16" />
  <rect class="slot" x="134" y="170" width="18" height="18" /><rect class="slotInner" x="135" y="171" width="16" height="16" />
  <rect class="slot" x="152" y="170" width="18" height="18" /><rect class="slotInner" x="153" y="171" width="16" height="16" />
</svg>
